<svg width="220" height="223" viewBox="0 0 220 223" fill="none" xmlns="http://www.w3.org/2000/svg">
<rect y="3" width="220" height="220" rx="110" fill="#F6F4F4"/>
<path d="M95.336 80.344C95.272 82.712 94.696 84.888 93.608 86.872C92.584 88.792 91.24 90.456 89.576 91.864C92.392 93.464 94.696 95.608 96.488 98.296C98.28 100.92 99.176 104.088 99.176 107.8C99.176 114.264 96.84 119.096 92.168 122.296C87.496 125.432 81.672 127 74.696 127H48.584V61.72H72.104C78.76 61.72 84.296 63.16 88.712 66.04C93.128 68.92 95.336 73.688 95.336 80.344ZM70.664 73.24H62.6V87.736H71.048C73.992 87.736 76.296 87.16 77.96 86.008C79.688 84.792 80.552 83 80.552 80.632C80.552 77.88 79.656 75.96 77.864 74.872C76.136 73.784 73.736 73.24 70.664 73.24ZM74.696 99.064H62.6V115.672H74.12C77.256 115.672 79.784 115 81.704 113.656C83.624 112.248 84.584 110.264 84.584 107.704C84.584 104.952 83.688 102.84 81.896 101.368C80.104 99.832 77.704 99.064 74.696 99.064Z" fill="#4665F6"/>
<path d="M117 123H166.01" stroke="#C8D1FD" stroke-width="20" stroke-linecap="round"/>
<path d="M132 92L166 92" stroke="#4665F6" stroke-width="20" stroke-linecap="round"/>
<path d="M58 150L166 151" stroke="#4665F6" stroke-width="20" stroke-linecap="round"/>
<circle cx="95" cy="69" r="10" fill="#C8D1FD"/>
</svg>
